<?xml version="1.0" encoding="iso-8859-1"?>
<!-- Uploaded to: SVG Repo, www.svgrepo.com, Generator: SVG Repo Mixer Tools -->
<svg height="800px" width="800px" version="1.1" id="Layer_1" xmlns="http://www.w3.org/2000/svg" xmlns:xlink="http://www.w3.org/1999/xlink" 
	 viewBox="0 0 512 512" xml:space="preserve">
<g>
	<path style="fill:#FEE187;" d="M138.366,144.407h41.758c27.199,0,49.249,22.049,49.249,49.249v72.795H76.885v-72.795
		c0-27.199,22.049-49.249,49.249-49.249h41.758"/>
	<path style="fill:#FEE187;" d="M347.334,144.407h41.758c27.199,0,49.249,22.049,49.249,49.249v72.795H285.852v-72.795
		c0-27.199,22.049-49.249,49.249-49.249h41.758"/>
</g>
<path style="fill:#FFC61B;" d="M497.074,251.525h-43.807v-57.871c0-24.66-13.99-46.103-34.442-56.844
	c5.321-7.989,8.432-17.57,8.432-27.866V75.607c0-8.244-6.684-14.926-14.926-14.926s-14.926,6.682-14.926,14.926v33.338
	c0,11.269-9.124,20.441-20.373,20.536h-29.87c-11.248-0.094-20.373-9.266-20.373-20.536V75.607c0-11.328,9.217-20.544,20.546-20.544
	h29.524c8.242,0,14.926-6.682,14.926-14.926S385.1,25.21,376.858,25.21h-29.524c-27.79,0-50.398,22.607-50.398,50.397v33.338
	c0,10.298,3.109,19.879,8.432,27.866c-20.452,10.741-34.442,32.184-34.442,56.844v57.871h-26.627v-57.871
	c0-24.66-13.989-46.103-34.442-56.844c5.321-7.989,8.432-17.57,8.432-27.866V75.607c0-8.244-6.684-14.926-14.926-14.926
	c-8.242,0-14.926,6.682-14.926,14.926v33.338c0,11.269-9.124,20.441-20.373,20.536h-29.867
	c-11.248-0.094-20.373-9.266-20.373-20.536V75.607c0-11.328,9.217-20.544,20.546-20.544h29.524c8.242,0,14.926-6.682,14.926-14.926
	s-6.684-14.926-14.926-14.926h-29.526c-27.79,0-50.398,22.607-50.398,50.397v33.338c0,10.298,3.109,19.879,8.432,27.866
	c-20.452,10.742-34.441,32.184-34.441,56.845v57.871H54.79c-0.03,0-0.06,0-0.09,0H14.926C6.684,251.527,0,258.209,0,266.453
	c0,8.244,6.684,14.926,14.926,14.926h28.351l56.614,194.653c1.854,6.374,7.694,10.757,14.334,10.757h283.552
	c6.638,0,12.478-4.384,14.334-10.759l37.256-128.1c0.004-0.013,0.007-0.025,0.012-0.039l0.072-0.245
	c0.039-0.136,0.061-0.27,0.096-0.406c0.081-0.309,0.161-0.618,0.221-0.934c0.048-0.249,0.079-0.499,0.113-0.746
	c0.031-0.23,0.07-0.458,0.091-0.691c0.031-0.34,0.043-0.678,0.051-1.016c0.003-0.125,0.019-0.246,0.019-0.373
	c0-0.03-0.004-0.058-0.004-0.088c-0.001-0.369-0.027-0.734-0.055-1.1c-0.01-0.136-0.013-0.275-0.028-0.409
	c-0.034-0.321-0.091-0.637-0.145-0.954c-0.031-0.178-0.052-0.358-0.09-0.534c-0.049-0.233-0.116-0.461-0.178-0.691
	c-0.066-0.249-0.124-0.502-0.202-0.746c-0.043-0.134-0.099-0.264-0.146-0.399c-0.113-0.327-0.228-0.652-0.363-0.967
	c-0.03-0.067-0.066-0.131-0.096-0.2c-0.166-0.37-0.339-0.736-0.533-1.088c-0.045-0.081-0.097-0.155-0.143-0.236
	c-0.19-0.33-0.382-0.658-0.596-0.973c-0.136-0.2-0.29-0.387-0.434-0.581c-0.139-0.184-0.267-0.372-0.413-0.548
	c-0.248-0.3-0.513-0.584-0.785-0.864c-0.058-0.06-0.109-0.125-0.169-0.185c-0.291-0.293-0.602-0.567-0.918-0.834
	c-0.049-0.042-0.094-0.088-0.142-0.128c-0.269-0.221-0.555-0.425-0.842-0.628c-0.11-0.079-0.215-0.166-0.328-0.242
	c-0.218-0.146-0.451-0.276-0.678-0.412c-0.198-0.118-0.391-0.243-0.596-0.352c-0.166-0.088-0.34-0.163-0.51-0.246
	c-0.282-0.137-0.561-0.276-0.854-0.396c-0.131-0.054-0.27-0.097-0.405-0.148c-0.336-0.127-0.672-0.251-1.019-0.354
	c-0.03-0.009-0.057-0.021-0.087-0.03c-0.128-0.037-0.257-0.058-0.387-0.091c-0.318-0.084-0.634-0.166-0.96-0.227
	c-0.243-0.048-0.487-0.078-0.73-0.112c-0.236-0.033-0.469-0.072-0.707-0.094c-0.337-0.031-0.673-0.042-1.009-0.051
	c-0.127-0.003-0.249-0.019-0.378-0.019h-0.228c-0.025,0-0.051,0-0.076,0H203.363c-8.242,0-14.926,6.682-14.926,14.926
	c0,8.244,6.684,14.926,14.926,14.926h211.866l-28.655,98.53H125.427l-51.06-175.556h2.518h152.488h56.479h152.488h58.733
	c8.242,0,14.926-6.682,14.926-14.926C512,258.208,505.316,251.525,497.074,251.525z M91.811,251.525v-57.871
	c0-18.925,15.396-34.321,34.321-34.321h11.889c0.061,0,0.121,0.004,0.182,0.004v53.558c0,8.244,6.684,14.926,14.926,14.926
	s14.926-6.682,14.926-14.926v-53.558c0.06,0,0.119-0.004,0.181-0.004h11.889c18.925,0,34.321,15.396,34.321,34.321v57.871
	L91.811,251.525L91.811,251.525z M300.779,251.525v-57.871c0-18.925,15.396-34.321,34.321-34.321h11.889
	c0.061,0,0.121,0.004,0.182,0.004v53.558c0,8.244,6.684,14.926,14.926,14.926s14.926-6.682,14.926-14.926v-53.558
	c0.061,0,0.119-0.004,0.181-0.004h11.889c18.925,0,34.321,15.396,34.321,34.321v57.871L300.779,251.525L300.779,251.525z"/>
</svg>