<svg xmlns="http://www.w3.org/2000/svg" width="111" height="39" fill="none" xmlns:v="https://vecta.io/nano"><g fill="#1e58c9"><path d="M54.738 20.71h3.039v10.853c0 .909.649 1.589 1.508 1.581s1.519-.698 1.523-1.587v-3.581-7.26h3.006l.01.225v10.671c0 2.151-1.517 4.051-3.612 4.464a4.4 4.4 0 0 1-3.872-.998l-.018-.014c-.525.287-.995.625-1.517.817-2.707.991-5.572-.664-6.06-3.555a4.64 4.64 0 0 1-.054-.763l-.002-10.649v-.195h3.02v.31 10.463c0 .812.407 1.39 1.115 1.588.224.066.459.078.689.036a1.49 1.49 0 0 0 .631-.28 1.52 1.52 0 0 0 .44-.535 1.5 1.5 0 0 0 .154-.677V20.998l.001-.288zm1.526-16.897c.88-.773 1.879-1.157 3.038-1.167a4.5 4.5 0 0 1 4.279 3.13c.146.455.224.929.231 1.408l.011 10.671v.235h-3.016v-.302-10.51c0-.918-.671-1.604-1.554-1.596a1.48 1.48 0 0 0-1.044.441c-.277.28-.432.659-.433 1.054v10.649.264h-3.038v-.27V7.217c0-.802-.554-1.43-1.349-1.53-.727-.093-1.441.403-1.627 1.143a2.18 2.18 0 0 0-.051.528v10.417.315h-3c-.009-.046-.015-.093-.018-.14L48.7 7.047c.011-2.145 1.729-4.06 3.843-4.345 1.366-.186 2.585.146 3.637 1.055.019.015.045.03.083.056zm36.96 16.902h3.006v.259 10.671c.001 1.069-.376 2.103-1.062 2.918a4.46 4.46 0 0 1-2.684 1.531c-1.393.228-2.647-.096-3.728-1.034-.017-.014-.038-.025-.076-.049l-.277.227c-2.651 2.058-6.625.524-7.214-2.794a3.79 3.79 0 0 1-.058-.646l-.002-10.904v-.175h3.006v.268 10.556c0 .744.415 1.333 1.074 1.53.999.299 1.963-.436 1.964-1.504v-6.417-4.431h3.01v.26V31.56c0 .651.283 1.156.877 1.43s1.157.186 1.649-.242c.341-.297.51-.686.51-1.146V21l.005-.285zM78.508 35.947h-3v-3.038h-6.081v3.033h-3.003c-.007-.031-.011-.062-.014-.093l.008-9.182c.019-2.465 1.599-4.689 3.891-5.565 3.48-1.33 7.356.809 8.087 4.47a5.41 5.41 0 0 1 .106 1.035l.005 9.136v.204zm-3.006-6.085v-2.527l-.046-.972c-.231-1.687-1.83-2.883-3.521-2.558-1.534.292-2.519 1.535-2.519 3.111v2.947l6.086-.002z"/><path d="M110.941 35.944h-3.016v-3.038h-6.067v3.031h-3.01v-.263-8.997c0-2.672 1.945-5.172 4.532-5.783 2.179-.515 4.113 0 5.733 1.553a5.76 5.76 0 0 1 1.789 3.761l.038.904v8.533l.001.3zm-3.038-6.085l-.008-3.27c-.064-1.674-1.612-3.081-3.47-2.806-1.498.222-2.573 1.513-2.575 3.036v2.811l.009.228h6.044zM66.41 2.854h3.02v.272V7.38c0 1.458.923 2.68 2.326 3.017a2.99 2.99 0 0 0 1.238.046 3 3 0 0 0 1.152-.46 3.02 3.02 0 0 0 .871-.888 3.05 3.05 0 0 0 .443-1.166c.026-.168.04-.337.041-.507V3.12v-.261h3.006v.258l.004 4.302c.038 2.71-1.834 5.201-4.457 5.889-.015.004-.029.011-.067.027v4.757h-3.013v-.253l.005-4.255c0-.186-.046-.262-.228-.32-2.365-.768-3.782-2.384-4.251-4.846a5.32 5.32 0 0 1-.086-.968l-.004-4.418.002-.177z"/></g><g fill="#fd5f2f"><path d="M13.22 19.397c-.019.081-.031.164-.038.247v9.529c0 1.474 1.217 2.894 2.663 3.113.205.03.411.046.618.046h2.861.26v6.467h-.259c-1.154-.004-2.308.029-3.459-.019-1.895-.079-3.613-.713-5.137-1.847-2.048-1.524-3.323-3.557-3.802-6.076a9.2 9.2 0 0 1-.157-1.681l-.004-9.739-.004-.027.277-.008 6.157-.004c.006.003.015.001.024 0zm12.789.003l-.005-9.716a3.28 3.28 0 0 0-.207-1.104c-.478-1.302-1.68-2.109-3.086-2.115-.946-.004-1.892 0-2.837 0h-.263V.023a1.41 1.41 0 0 1 .167-.018l3.369.013c1.962.052 3.741.684 5.319 1.853 1.959 1.452 3.222 3.384 3.744 5.778a10.14 10.14 0 0 1 .217 2.069l.009 9.507c0 .039-.005.077-.008.116l-.003.053-6.419.004.003.004z"/><path d="M19.592 19.4h6.419l-.004-.004.006 9.357.035.74c.13 1.442 1.488 2.785 2.921 2.831l3.456.004-.004-.005a1.23 1.23 0 0 1 .015.137v6.139l-.007.173c-.027.014-.04.027-.053.027-1.315-.005-2.633.053-3.943-.031-1.903-.123-3.614-.826-5.116-2.02-1.772-1.408-2.945-3.214-3.454-5.43a9.66 9.66 0 0 1-.252-2.064l-.012-9.53-.005-.326-.003.002z"/><path d="M13.22 19.397c-.009 0-.018.003-.027.004l-.008-.255V9.741c0-1.748-1.376-3.209-3.105-3.263l-3.318-.01.005.005V.023a.64.64 0 0 1 .111-.018l3.391.011c1.898.04 3.632.625 5.179 1.721 2.058 1.46 3.388 3.434 3.927 5.92.133.596.204 1.203.212 1.814l.006 9.926.003-.003-6.376.004z"/><path d="M6.76 19.413a.26.26 0 0 1 .004.027 1.88 1.88 0 0 0-.268-.038 2862.61 2862.61 0 0 0-5.861 0H.363V6.474h6.402L6.76 6.47v12.943zm25.665-.021l.003-.053c.092.022.185.062.277.062l5.861.003h.265v12.919l-.181.01h-6.115c-.038 0-.076-.007-.114-.01l.004.005.01-.208V19.577l-.011-.185z"/></g></svg>