<svg xmlns="http://www.w3.org/2000/svg" fill="none" viewBox="0 0 111 18"><path fill="url(#a)" fill-rule="evenodd" d="m8.777 5.784 1.38-1.382h.012L7.109 1.33A2.845 2.845 0 0 0 5.096.5c-.771 0-1.484.3-2.025.84L0 4.414l1.369 1.37 3.07-3.063c.334-.345.932-.345 1.278 0l3.06 3.063Zm.005 4.592 1.382-1.381h.011l-.011.011h-.011l3.061 3.073c.541.53 1.243.829 2.015.829.771 0 1.485-.3 2.026-.84l3.073-3.074-1.37-1.37-3.073 3.063c-.334.345-.932.345-1.278 0l-3.062-3.062-1.37 1.37-3.062-3.073a2.848 2.848 0 0 0-2.014-.83c-.771 0-1.485.3-2.026.841L0 9.006l1.37 1.37 3.073-3.062c.333-.345.932-.345 1.277 0l3.062 3.062Zm1.382 3.245-1.381 1.382-3.062-3.062c-.346-.345-.944-.345-1.278 0L1.37 15.003 0 13.633l3.073-3.073c.54-.54 1.255-.84 2.026-.84.771 0 1.474.3 2.014.828l3.04 3.05h.01l1.382-1.38 3.062 3.061c.346.346.944.346 1.278 0l3.073-3.062 1.37 1.37-3.073 3.073c-.541.541-1.255.84-2.026.84-.772 0-1.474-.299-2.015-.828l-3.039-3.05h-.01ZM11.56 2.992l-1.38 1.382h-.012l3.06 3.073c.54.53 1.242.829 2.013.829.771 0 1.484-.3 2.025-.84l3.07-3.074-1.368-1.37-3.071 3.062c-.334.346-.932.346-1.277 0l-3.06-3.062Z" clip-rule="evenodd"/><path fill="#0E0F19" d="M97.38 9.173a1.541 1.541 0 1 1-3.083 0 1.541 1.541 0 0 1 3.082 0ZM26.889 14.66 22.656 3.307h3.106l2.748 8.246-.92.023 2.84-8.27h2.21l2.863 8.27-.92-.023 2.748-8.246h3.106l-4.233 11.351h-2.23l-2.841-7.82h.874l-2.887 7.82h-2.231ZM48.764 14.89c-1.035 0-1.966-.253-2.783-.77a5.482 5.482 0 0 1-1.944-2.117c-.471-.897-.701-1.898-.701-3.002 0-1.104.23-2.139.702-3.036a5.396 5.396 0 0 1 1.943-2.116c.828-.518 1.76-.77 2.806-.77 1.047 0 1.519.16 2.163.494a4.065 4.065 0 0 1 1.552 1.368c.391.575.598 1.242.633 2.001v4.118a3.942 3.942 0 0 1-.621 1.99 3.93 3.93 0 0 1-1.553 1.38c-.644.333-1.38.494-2.197.494v-.034Zm.587-2.841c.863 0 1.553-.288 2.093-.874.53-.575.805-1.311.805-2.185 0-.874-.126-1.127-.38-1.599a2.816 2.816 0 0 0-1.011-1.093c-.426-.253-.92-.39-1.507-.39a2.767 2.767 0 0 0-2.507 1.483c-.242.449-.368.978-.368 1.576 0 .598.115 1.138.368 1.598.241.46.586.817 1.023 1.081.437.265.932.403 1.484.403Zm2.703 2.61V11.6l.517-2.771-.517-2.75V3.31h3.105v11.35h-3.105ZM63.197 14.66 58.965 3.307h3.105l2.749 8.246-.92.023 2.84-8.27h2.209l2.864 8.27-.92-.023 2.748-8.246h3.105l-4.232 11.351h-2.231l-2.84-7.82h.873l-2.887 7.82h-2.23ZM85.073 14.89c-1.035 0-1.967-.253-2.783-.77a5.396 5.396 0 0 1-1.944-2.117c-.472-.897-.702-1.898-.702-3.002 0-1.104.23-2.139.702-3.036a5.396 5.396 0 0 1 1.944-2.116c.828-.518 1.76-.77 2.806-.77 1.047 0 1.518.16 2.162.494a4.065 4.065 0 0 1 1.553 1.368c.39.575.598 1.242.632 2.001v4.118a3.942 3.942 0 0 1-.62 1.99 3.93 3.93 0 0 1-1.553 1.38c-.656.333-1.38.494-2.197.494v-.034Zm.587-2.841c.862 0 1.552-.288 2.093-.874.54-.587.805-1.311.805-2.185 0-.874-.127-1.127-.38-1.599a2.817 2.817 0 0 0-1.012-1.093c-.425-.264-.92-.39-1.506-.39a2.767 2.767 0 0 0-2.508 1.483 3.32 3.32 0 0 0-.368 1.576c0 .598.115 1.138.368 1.598.242.46.587.817 1.024 1.081.437.265.931.403 1.484.403Zm2.702 2.61V11.6l.518-2.771-.518-2.75V3.31h3.106v11.35h-3.106ZM110.619 14.636h-4.692l-.771-1.093 1.656-2.334c.311-.45 1.058-.45 1.369 0l2.438 3.427ZM106.315 9.782l-3.45 4.854h-4.692l3.875-5.452-4.255-5.992h4.692l3.83 5.394a1 1 0 0 1 0 1.196ZM110.993 3.192l-2.76 3.888c-.379.529-1.254.529-1.633 0l-1.53-2.151 1.231-1.737h4.692Z"/><defs><radialGradient id="a" cx="0" cy="0" r="1" gradientTransform="matrix(40.9939 0 0 41.0284 8.178 -8.657)" gradientUnits="userSpaceOnUse"><stop stop-color="#E10092"/><stop offset=".5" stop-color="#7A03FF"/><stop offset="1" stop-color="#00F"/></radialGradient></defs></svg>
